<svg xmlns="http://www.w3.org/2000/svg" width="780" height="440" viewBox="0 0 780 440" fill="none"><rect width="780" height="440" fill="url(#paint0_linear_4204_2)"></rect><path d="M546.355 220C546.355 245.63 540.055 270.867 528.008 293.489C515.962 316.112 498.539 335.426 477.273 349.732C456.007 364.038 431.551 372.897 406.056 375.529C380.562 378.161 354.811 374.485 331.071 364.825C307.332 355.166 286.33 339.818 269.916 320.134C253.502 300.45 242.179 277.032 236.942 251.943C231.706 226.854 232.718 200.862 239.889 176.255C247.059 151.649 260.169 129.183 278.064 110.834L390 220H546.355Z" fill="url(#paint1_linear_4204_2)"></path><circle cx="390" cy="220" r="169.25" stroke="white" stroke-width="1.5"></circle><circle cx="390" cy="220" r="141.049" stroke="white" stroke-width="1.5"></circle><circle cx="390" cy="220" r="111.295" stroke="white" stroke-width="1.5"></circle><circle cx="390" cy="220" r="79.8073" stroke="white" stroke-width="1.5"></circle><circle cx="390" cy="220" r="12.5021" fill="#205BC3" stroke="white" stroke-width="1.5"></circle><path d="M519.733 243.095C533.497 243.095 544.655 231.937 544.655 218.173C544.655 204.409 533.497 193.251 519.733 193.251C505.969 193.251 494.811 204.409 494.811 218.173C494.811 231.937 505.969 243.095 519.733 243.095Z" fill="white" stroke="#040404" stroke-width="1.5" stroke-miterlimit="10"></path><path d="M512.908 212.29H506.105V232.928H512.908V212.29Z" fill="#00C9B9" stroke="#040404" stroke-width="1.5" stroke-miterlimit="10"></path><path d="M523.026 203.414H516.223V232.926H523.026V203.414Z" fill="#81EBD9" stroke="#040404" stroke-width="1.5" stroke-miterlimit="10"></path><path d="M533.363 221.466H526.56V232.924H533.363V221.466Z" fill="#FFB180" stroke="#040404" stroke-width="1.5" stroke-miterlimit="10"></path><path d="M248.146 279.626C257.427 290.009 272.494 292.924 284.977 286.749C300.312 279.162 306.594 260.587 299.007 245.252C291.419 229.918 272.844 223.635 257.51 231.223C242.175 238.811 235.892 257.385 243.48 272.72L239.654 283.102L248.146 279.626Z" fill="white" stroke="#040404" stroke-width="1.5" stroke-miterlimit="10" stroke-linejoin="round"></path><path d="M253.143 251.497L255.396 256.055L260.425 256.787L256.784 260.339L257.643 265.349L253.143 262.981L248.642 265.349L249.502 260.339L245.861 256.787L250.896 256.055L253.143 251.497Z" fill="#FFB180" stroke="#040404" stroke-width="1.5" stroke-linecap="round" stroke-linejoin="round"></path><path d="M270.635 251.497L272.889 256.055L277.918 256.787L274.276 260.339L275.136 265.349L270.635 262.981L266.135 265.349L266.994 260.339L263.353 256.787L268.388 256.055L270.635 251.497Z" fill="#FFB180" stroke="#040404" stroke-width="1.5" stroke-linecap="round" stroke-linejoin="round"></path><path d="M288.187 251.595L290.44 256.153L295.469 256.885L291.828 260.437L292.687 265.446L288.187 263.078L283.686 265.446L284.546 260.437L280.911 256.885L285.94 256.153L288.187 251.595Z" fill="#FFB180" stroke="#040404" stroke-width="1.5" stroke-linecap="round" stroke-linejoin="round"></path><path d="M390 117.861C406.097 117.861 419.147 104.812 419.147 88.7144C419.147 72.6173 406.097 59.5679 390 59.5679C373.903 59.5679 360.854 72.6173 360.854 88.7144C360.854 104.812 373.903 117.861 390 117.861Z" fill="white" stroke="#040404" stroke-width="1.5" stroke-miterlimit="10"></path><path d="M405.16 91.8648L404.175 92.1602L404.864 93.0464C405.16 93.4403 405.357 93.9326 405.357 94.425C405.357 95.5081 404.569 96.4928 403.486 96.5913L402.501 96.7882L402.993 97.6744C403.19 97.9698 403.289 98.3637 403.289 98.6591C403.289 99.8407 402.403 100.825 401.221 100.924H388.322C388.322 100.924 386.746 100.924 385.564 99.9392C385.269 99.7422 385.072 99.5453 384.875 99.4468L384.58 99.3484V87.3353L385.958 86.1537L390.488 77.6854C390.685 77.39 390.882 76.9961 390.882 76.6023C390.98 76.2084 390.98 75.8145 390.98 75.4207L390.586 70.6942C390.882 70.4973 391.276 70.3988 391.67 70.3988C393.639 70.3988 395.313 73.5498 395.313 76.1099C395.313 76.5038 395.313 76.7992 395.214 77.1931L394.427 82.3134H404.273C404.864 82.3134 405.553 82.6088 405.947 83.0027C406.341 83.3966 406.637 83.9874 406.637 84.5782C406.637 85.2675 406.341 85.9567 405.75 86.3506L404.864 87.0399L405.849 87.6307C406.538 88.0246 407.031 88.8123 407.031 89.6C406.735 90.6832 406.046 91.5694 405.16 91.8648Z" fill="#08C4B2" stroke="#040404" stroke-width="1.5" stroke-miterlimit="10"></path><path d="M376.605 85.4673H383.794C384.286 85.4673 384.581 85.8612 384.581 86.2551V100.238C384.581 100.73 384.188 101.025 383.794 101.025H376.605C376.113 101.025 375.818 100.631 375.818 100.238V86.2551C375.818 85.7628 376.212 85.4673 376.605 85.4673Z" fill="#08C4B2" stroke="#040404" stroke-width="1.5" stroke-miterlimit="10"></path><path d="M368.426 348.852C379.155 348.852 387.852 340.155 387.852 329.426C387.852 318.697 379.155 310 368.426 310C357.697 310 349 318.697 349 329.426C349 340.155 357.697 348.852 368.426 348.852Z" fill="white" stroke="#040404" stroke-width="1.5" stroke-miterlimit="10"></path><path d="M368.491 339.699L376.393 331.665C378.434 329.624 378.368 326.331 376.327 324.356C374.286 322.38 371.059 322.38 369.018 324.422L368.359 325.08L367.701 324.422C365.659 322.446 362.433 322.446 360.391 324.422C358.35 326.463 358.416 329.755 360.457 331.731L368.491 339.699Z" fill="#08C4B2" stroke="#040404" stroke-width="1.5" stroke-miterlimit="10"></path><path d="M423.234 194.476L422.343 216.531C422.327 217.052 422.079 217.541 421.683 217.883L382.828 251.112C382.036 251.796 380.816 251.715 380.123 250.916L357.232 224.806C356.54 224.024 356.622 222.818 357.43 222.134L396.302 188.889C396.698 188.563 397.209 188.384 397.72 188.433L419.457 190.241C421.65 190.42 423.316 192.277 423.234 194.46V194.476ZM405.999 205.943C407.451 207.605 410.007 207.784 411.689 206.351C413.371 204.917 413.553 202.393 412.102 200.731C410.65 199.07 408.094 198.89 406.412 200.324C404.73 201.757 404.548 204.282 405.999 205.943Z" fill="#FFE16E" stroke="#040404" stroke-width="1.5" stroke-miterlimit="10"></path><defs><linearGradient id="paint0_linear_4204_2" x1="417.835" y1="348.547" x2="141.569" y2="-33.9754" gradientUnits="userSpaceOnUse"><stop stop-color="#0A2960"></stop><stop offset="1" stop-color="#1555C6"></stop></linearGradient><linearGradient id="paint1_linear_4204_2" x1="301.543" y1="156.631" x2="346.028" y2="264.505" gradientUnits="userSpaceOnUse"><stop stop-color="#08C4B2"></stop><stop offset="1" stop-color="#0A2960"></stop></linearGradient></defs></svg>